# AST/ASF file generated using VICON BodyLanguage
# -----------------------------------------------
:version 1.10
:name VICON
:units
  mass 1.0
  length 0.45
  angle deg
:documentation
   .ast/.asf automatically generated from VICON data using
   VICON BodyBuilder and BodyLanguage model FoxedUp or BRILLIANT.MOD
:root
   order TX TY TZ RX RY RZ
   axis XYZ
   position 0 0 0  
   orientation 0 0 0 
:bonedata
  begin
     id 1 
     name lhipjoint
     direction 0.700308 -0.549349 0.455834 
     length 2.59063 
     axis 0 0 0  XYZ
  end
  begin
     id 2 
     name lfemur
     direction 0.34202 -0.939693 0  
     length 6.31066  
     axis 0 0 20  XYZ
    dof rx ry rz
    limits (-160.0 20.0)
           (-70.0 70.0)
           (-60.0 70.0)
  end
  begin
     id 3 
     name ltibia
     direction 0.34202 -0.939693 0   
     length 7.36093   
     axis 0 0 20   XYZ
    dof rx
    limits (-10.0 170.0)
  end
  begin
     id 4 
     name lfoot
     direction 0.0905332 -0.248738 0.96433   
     length 2.0233   
     axis -90 7.62852e-016 20   XYZ
    dof rx rz
    limits (-45.0 90.0)
           (-70.0 20.0)
  end
  begin
     id 5 
     name ltoes
     direction 1.53573e-011 -4.21855e-011 1   
     length 1.01524   
     axis -90 7.62852e-016 20   XYZ
    dof rx
    limits (-90.0 20.0)
  end
  begin
     id 6 
     name rhipjoint
     direction -0.61416 -0.607328 0.503944   
     length 2.34332  
     axis 0 0 0  XYZ 
  end
  begin
     id 7 
     name rfemur
     direction -0.34202 -0.939693 0   
     length 6.58548   
     axis 0 0 -20   XYZ
    dof rx ry rz
    limits (-160.0 20.0)
           (-70.0 70.0)
           (-70.0 60.0)
  end
  begin
     id 8 
     name rtibia
     direction -0.34202 -0.939693 0   
     length 7.20707   
     axis 0 0 -20   XYZ
    dof rx
    limits (-10.0 170.0)
 end
 begin
     id 9 
     name rfoot
     direction -0.136772 -0.375778 0.916561   
     length 1.92184  
     axis -90 -7.62852e-016 -20   XYZ
    dof rx rz
    limits (-45.0 90.0)
           (-20.0 70.0)
  end
  begin
     id 10 
     name rtoes
     direction -1.53535e-011 -4.21828e-011 1   
     length 0.951089   
     axis -90 -7.62852e-016 -20   XYZ
    dof rx
    limits (-90.0 20.0)
  end
  begin
     id 11 
     name lowerback
     direction -0.0444974 0.988086 -0.147332   
     length 1.9609   
     axis 0 0 0   XYZ
    dof rx ry rz
    limits (-20.0 45.0)
           (-30.0 30.0)
           (-30.0 30.0)
  end
  begin
     id 12 
     name upperback
     direction 0.00613146 0.999513 0.0306081   
     length 1.94944   
     axis 0 0 0   XYZ
    dof rx ry rz
    limits (-20.0 45.0)
           (-30.0 30.0)
           (-30.0 30.0)
  end
  begin
     id 13 
     name thorax
     direction 0.0254621 0.994518 0.101418   
     length 2.0119   
     axis 0 0 0   XYZ
    dof rx ry rz
    limits (-20.0 45.0)
           (-30.0 30.0)
           (-30.0 30.0)
  end
  begin
     id 14 
     name lowerneck
     direction 0.0168698 0.977854 0.208608   
     length 1.6375   
     axis 0 0 0   XYZ
    dof rx ry rz
    limits (-20.0 45.0)
           (-30.0 30.0)
           (-30.0 30.0)
  end
  begin
     id 15 
     name upperneck
     direction -0.0283988 0.989338 -0.142843   
     length 1.6851   
     axis 0 0 0   XYZ
    dof rx ry rz
    limits (-20.0 45.0)
           (-30.0 30.0)
           (-30.0 30.0)
  end
  begin
     id 16
     name head
     direction -0.0129422 0.99741 -0.0707489  
     length 1.69029  
     axis 0 0 0   XYZ
    dof rx ry rz
    limits (-20.0 45.0)
           (-30.0 30.0)
           (-30.0 30.0)
  end
  begin
     id 17 
     name lclavicle
     direction 0.820295 0.564628 -0.0911715  
     length 3.16484  
     axis 0 0 0   XYZ
    dof ry rz
    limits (-20.0 10.0)
           (0.0 20.0)
  end
  begin
     id 18 
     name lhumerus
     direction 1 -4.48969e-011 1.00186e-027   
     length 5.17853   
     axis 180 -30 -90   XYZ
    dof rx ry rz
    limits (-60.0 90.0)
           (-90.0 90.0)
           (-90.0 90.0)
  end
  begin
     id 19
     name lradius
     direction 1 -4.48966e-011 -1.52922e-027   
     length 3.40399   
     axis 180 -30 -90   XYZ
    dof rx
    limits (-10.0 170.0)
  end
  begin
     id 20
     name lwrist
     direction 1 -4.48981e-011 -3.80893e-027   
     length 1.70199   
     axis 1.1049e-015 90 90   XYZ
    dof ry
    limits (-180.0 0.0)
 end
  begin
     id 21 
     name lhand
     direction 1 -4.48957e-011 -7.61786e-027   
     length 0.708964   
     axis 4.86085e-015 90 90   XYZ
    dof rx rz
    limits (-90.0 90.0)
           (-45.0 45.0)
  end
  begin
     id 22 
     name lfingers
     direction 1 -4.48929e-011 -1.52357e-026   
     length 0.571585   
     axis 9.7217e-015 90 90   XYZ
    dof rx
    limits (0.0 90.0)
  end
  begin
     id 23
     name lthumb
     direction 0.707107 -6.34905e-011 0.707107   
     length 0.820685   
     axis -90 45 2.85299e-015   XYZ
    dof rx rz
    limits (-45.0 45.0)
           (-45.0 45.0)
  end
  begin
     id 24 
     name rclavicle
     direction -0.858602 0.463947 -0.218075   
     length 3.35137  
     axis 0 0 0   XYZ 
    dof ry rz
    limits (-10.0 20.0)
           (-20.0 0.0)
  end
  begin
     id 25 
     name rhumerus
     direction -1 -4.48969e-011 -1.98511e-027  
     length 5.42351   
     axis 180 30 90   XYZ
    dof rx ry rz
    limits (-90.0 60.0)
           (-90.0 90.0)
           (-90.0 90.0)
  end
  begin
     id 26 
     name rradius
     direction -1 -4.48961e-011 -2.82624e-027   
     length 3.42066   
     axis 180 30 90   XYZ
    dof rx
    limits (-10.0 170.0)
  end
  begin
     id 27 
     name rwrist
     direction -1 -4.48966e-011 -3.80893e-027   
     length 1.71033   
     axis 1.1049e-015 -90 -90   XYZ
    dof ry
    limits (-180.0 0.0)
  end
  begin
     id 28
     name rhand
     direction -1 -4.48964e-011 -7.61786e-027   
     length 0.743608   
     axis 4.86085e-015 -90 -90   XYZ
    dof rx rz
    limits (-90.0 90.0)
           (-45.0 45.0)
  end
  begin
     id 29
     name rfingers
     direction -1 -4.48961e-011 -1.52357e-026   
     length 0.599516   
     axis 9.7217e-015 -90 -90   XYZ
    dof rx
    limits (0.0 90.0)
  end
  begin
     id 30
     name rthumb
     direction -0.707107 -6.34913e-011 0.707107   
     length 0.860789   
     axis -90 -45 -2.85299e-015   XYZ
    dof rx rz
    limits (-45.0 45.0)
           (-45.0 45.0)
  end
:hierarchy
  begin
    root lhipjoint rhipjoint lowerback
    lhipjoint lfemur
    lfemur ltibia
    ltibia lfoot
    lfoot ltoes
    rhipjoint rfemur
    rfemur rtibia
    rtibia rfoot
    rfoot rtoes
    lowerback upperback
    upperback thorax
    thorax lowerneck lclavicle rclavicle
    lowerneck upperneck
    upperneck head
    lclavicle lhumerus
    lhumerus lradius
    lradius lwrist
    lwrist lhand lthumb
    lhand lfingers
    rclavicle rhumerus
    rhumerus rradius
    rradius rwrist
    rwrist rhand rthumb
    rhand rfingers
  end

#!OML:ASF E:\mmandel\Project 1\Capture day 1\Session 2\Subject.ASF
:FULLY-SPECIFIED
:DEGREES
779
root 7.76302 14.7079 -2.65924 683.117 86.2019 663.399
lowerback 26.5534 0.224313 -0.0926162
upperback 2.68475 0.604132 0.819627
thorax -11.8089 0.403044 0.745206
lowerneck -18.4677 2.57909 4.6175
upperneck 3.1513 3.03731 -6.23773
head 4.05113 1.24503 -2.41847
rclavicle -8.74653e-015 -6.95746e-015
rhumerus -7.88774 2.88669 -82.9924
rradius 67.6632
rwrist -15.0567
rhand -16.696 38.0942
rfingers 7.12502
rthumb 9.52867 8.32962
lclavicle -8.74653e-015 -6.95746e-015
lhumerus -4.05307 -11.5247 73.6484
lradius 64.6071
lwrist 28.5799
lhand -20.1752 327.17
lfingers 7.12502
lthumb 6.17069 -2.93987
rfemur -55.2031 -10.8531 12.1158
rtibia 59.8667
rfoot -23.8405 -7.8783
rtoes -17.7912
lfemur -58.3549 17.802 -14.1253
ltibia 64.9101
lfoot -22.6708 -4.37762
ltoes 0.777929
780
root 7.76699 14.7128 -2.66439 683.437 86.1399 663.765
lowerback 26.5534 0.215173 -0.121129
upperback 2.72445 0.586517 0.824819
thorax -11.7632 0.397234 0.773685
lowerneck -18.5555 2.70447 4.702
upperneck 3.1385 3.19153 -6.33357
head 4.07231 1.31616 -2.44766
rclavicle 1.07344e-014 1.70955e-014
rhumerus -7.89336 3.08544 -82.9993
rradius 67.7222
rwrist -15.13
rhand -16.5782 38.1597
rfingers 7.12502
rthumb 9.64237 8.40038
lclavicle 1.07344e-014 1.70955e-014
lhumerus -4.13912 -11.3968 73.6449
lradius 64.5309
lwrist 28.3971
lhand -20.1488 327.39
lfingers 7.12502
lthumb 6.19616 -2.72054
rfemur -55.1034 -10.8091 12.118
rtibia 59.7995
rfoot -23.797 -7.8739
rtoes -17.913
lfemur -58.2518 17.8725 -14.1109
ltibia 64.8828
lfoot -22.6612 -4.31649
ltoes 0.549346
781
root 7.77007 14.7144 -2.66822 683.034 86.097 663.358
lowerback 26.6116 0.179224 -0.0912525
upperback 2.69097 0.54835 0.828427
thorax -11.8319 0.378072 0.774219
lowerneck -18.613 2.79488 4.80987
upperneck 3.17226 3.29224 -6.39886
head 4.10023 1.36228 -2.47591
rclavicle -1.19271e-015 5.96354e-015
rhumerus -8.0527 3.29344 -83.0394
rradius 67.9282
rwrist -15.1787
rhand -16.6265 38.1476
rfingers 7.12502
rthumb 9.59573 8.38612
lclavicle -1.19271e-015 5.96354e-015
lhumerus -4.25382 -11.2705 73.6561
lradius 64.322
lwrist 28.0661
lhand -20.0814 327.429
lfingers 7.12502
lthumb 6.26123 -2.68345
rfemur -55.0881 -10.8111 12.1678
rtibia 59.7523
rfoot -23.7832 -7.90165
rtoes -17.9822
lfemur -58.2362 17.8971 -14.0775
ltibia 64.8814
lfoot -22.667 -4.20558
ltoes 0.0496507
782
root 7.77181 14.7143 -2.67037 683.252 86.0774 663.541
lowerback 26.6745 0.159351 -0.0916361
upperback 2.62978 0.518487 0.814366
thorax -11.9353 0.363114 0.769431
lowerneck -18.5227 2.88824 4.90941
upperneck 3.0259 3.40355 -6.51425
head 4.05168 1.41572 -2.51862
rclavicle 1.45113e-014 2.78299e-014
rhumerus -8.20602 3.4918 -83.0829
rradius 68.1588
rwrist -15.3208
rhand -16.7002 38.0141
rfingers 7.12502
rthumb 9.52461 8.24941
lclavicle 1.45113e-014 2.78299e-014
lhumerus -4.40777 -11.1793 73.6912
lradius 64.2132
lwrist 27.8937
lhand -19.9229 327.586
lfingers 7.12502
lthumb 6.41425 -2.53135
rfemur -55.1029 -10.7801 12.1678
rtibia 59.7091
rfoot -23.7949 -7.87077
rtoes -17.6988
lfemur -58.2683 17.923 -14.0946
ltibia 64.8784
lfoot -22.6783 -4.18375
ltoes -0.00740255
783
root 7.77265 14.7162 -2.67255 683.229 86.0192 663.506
lowerback 26.7067 0.146226 -0.090407
upperback 2.61147 0.503069 0.827447
thorax -11.9735 0.356207 0.78918
lowerneck -18.1443 3.03229 4.98716
upperneck 2.56388 3.59232 -6.67546
head 3.86723 1.51438 -2.5678
rclavicle -1.98785e-015 -5.56597e-015
rhumerus -8.25675 3.65849 -83.097
rradius 68.3246
rwrist -15.4869
rhand -16.6411 38.0417
rfingers 7.12502
rthumb 9.58165 8.27961
lclavicle -1.98785e-015 -5.56597e-015
lhumerus -4.62625 -11.0646 73.7756
lradius 64.2744
lwrist 27.8841
lhand -19.8497 327.602
lfingers 7.12502
lthumb 6.48489 -2.51705
rfemur -55.0725 -10.7041 12.2023
rtibia 59.6479
rfoot -23.8012 -7.89364
rtoes -17.6079
lfemur -58.2731 17.985 -14.0709
ltibia 64.874
lfoot -22.6747 -4.26269
ltoes -0.0192087
